<svg width="59" height="51" viewBox="0 0 59 51" fill="none" xmlns="http://www.w3.org/2000/svg">
<g clip-path="url(#clip0_1769_24087)">
<path d="M31.7685 20.6396L31.7685 7.00324C31.7685 5.1093 32.4302 3.49946 33.7536 2.1737C35.0771 0.847941 36.6841 0.185062 38.5747 0.185063L52.187 0.185064C54.0776 0.185064 55.6846 0.847943 57.008 2.1737C58.3315 3.49946 58.9932 5.10931 58.9932 7.00325L58.9932 32.0032C58.9932 34.4654 58.5146 36.815 57.5575 39.0522C56.6004 41.2895 55.3065 43.2248 53.6758 44.8584C52.0452 46.4919 50.1132 47.788 47.88 48.7468C45.6467 49.7057 43.3012 50.1851 40.8434 50.1851L38.5747 50.1851C37.9602 50.1851 37.4285 49.9602 36.9795 49.5103C36.5305 49.0605 36.3059 48.5279 36.3059 47.9123L36.3059 43.3669C36.3059 42.7513 36.5305 42.2187 36.9795 41.7689C37.4285 41.3191 37.9602 41.0941 38.5747 41.0941L40.8434 41.0941C43.3484 41.0941 45.4872 40.2064 47.2596 38.4308C49.0321 36.6552 49.9183 34.5127 49.9183 32.0032L49.9183 30.8669C49.9183 29.9199 49.5874 29.115 48.9257 28.4521C48.264 27.7892 47.4605 27.4578 46.5152 27.4578L38.5747 27.4578C36.6841 27.4578 35.0771 26.7949 33.7536 25.4692C32.4302 24.1434 31.7685 22.5335 31.7685 20.6396ZM0.00640555 20.6396L0.00640674 7.00324C0.00640691 5.1093 0.668118 3.49945 1.99154 2.1737C3.31496 0.847938 4.92197 0.18506 6.81257 0.18506L20.4249 0.185061C22.3155 0.185061 23.9225 0.84794 25.2459 2.1737C26.5694 3.49945 27.2311 5.1093 27.2311 7.00324L27.2311 32.0032C27.2311 34.4654 26.7525 36.815 25.7954 39.0522C24.8383 41.2895 23.5444 43.2248 21.9137 44.8584C20.2831 46.4919 18.3511 47.788 16.1179 48.7468C13.8846 49.7057 11.5391 50.1851 9.08129 50.1851L6.81257 50.1851C6.19812 50.1851 5.66639 49.9601 5.21737 49.5103C4.76836 49.0605 4.54385 48.5279 4.54385 47.9123L4.54385 43.3669C4.54385 42.7513 4.76836 42.2187 5.21737 41.7689C5.66639 41.3191 6.19812 41.0941 6.81257 41.0941L9.08129 41.0941C11.5863 41.0941 13.7251 40.2064 15.4975 38.4308C17.27 36.6552 18.1562 34.5127 18.1562 32.0032L18.1562 30.8669C18.1562 29.9199 17.8253 29.115 17.1636 28.4521C16.5019 27.7892 15.6984 27.4578 14.7531 27.4578L6.81257 27.4578C4.92197 27.4578 3.31496 26.7949 1.99154 25.4691C0.668116 24.1434 0.00640539 22.5335 0.00640555 20.6396Z" fill="#DEE2E6"/>
</g>
<defs>
<clipPath id="clip0_1769_24087">
<rect width="59" height="50" fill="white" transform="translate(59 50.1851) rotate(-180)"/>
</clipPath>
</defs>
</svg>
